<svg width="182" height="57" viewBox="0 0 182 57" fill="none" xmlns="http://www.w3.org/2000/svg">
<path d="M46.521 45H42.9122V41.7569H46.521V21.5941L42.2927 18.1742L43.5317 15.3948L47.7588 18.8131C48.1142 19.1025 48.4083 19.5104 48.6129 19.9975C48.8175 20.4845 48.9256 21.0344 48.9269 21.5941V41.7569C48.9262 42.6167 48.6726 43.4412 48.2215 44.0492C47.7705 44.6572 47.1589 44.9992 46.521 45Z" fill="#20CC5A"/>
<path d="M59.1846 45H55.4069C54.7392 44.9991 54.099 44.6602 53.6269 44.0576C53.1547 43.455 52.8891 42.6379 52.8885 41.7857V24.1071H60.4439C61.1475 24.1073 61.8433 23.9193 62.4864 23.5553C63.1296 23.1913 63.7059 22.6594 64.1782 21.9938C64.6505 21.3282 65.0083 20.5437 65.2285 19.6908C65.4487 18.838 65.5265 17.9357 65.4569 17.0421C65.2884 15.4164 64.6563 13.9269 63.6816 12.8584C62.7069 11.7899 61.4578 11.2173 60.1731 11.25H58.1798L57.9569 9.99803C57.2354 5.94 54.1868 3.21429 50.37 3.21429C48.9288 3.22031 47.5189 3.75054 46.3054 4.74282C45.0919 5.73509 44.1252 7.1483 43.5185 8.81679L43.1294 9.88875L42.0427 9.70553C41.8816 9.6701 41.7188 9.64916 41.5554 9.64286C40.2195 9.64286 38.9384 10.3202 37.9937 11.5257C37.0491 12.7313 36.5185 14.3665 36.5185 16.0714C36.5185 17.7764 37.0491 19.4115 37.9937 20.6171C38.9384 21.8227 40.2195 22.5 41.5554 22.5V25.7143C39.5516 25.7143 37.6298 24.6983 36.2129 22.89C34.796 21.0816 34 18.6289 34 16.0714C34 13.514 34.796 11.0613 36.2129 9.2529C37.6298 7.44451 39.5516 6.42857 41.5554 6.42857L41.6549 6.43018C42.5407 4.47999 43.8115 2.8601 45.3406 1.7319C46.8697 0.603693 48.6038 0.00656406 50.37 0C55.0027 0 58.7968 3.17893 60.1316 8.03571H60.1731C62.0831 8.00852 63.9338 8.88107 65.3712 10.4864C66.8086 12.0917 67.7317 14.3171 67.964 16.7368C68.0668 18.0761 67.9488 19.4281 67.6177 20.7058C67.2866 21.9834 66.7496 23.1585 66.0413 24.1555C65.333 25.1524 64.4691 25.9491 63.5051 26.4943C62.541 27.0396 61.4983 27.3213 60.4439 27.3214H55.4069V41.7857H59.1846V45Z" fill="#20CC5A"/>
<path d="M11.376 45.252C9.528 45.252 7.872 44.952 6.408 44.352C4.944 43.752 3.768 42.864 2.88 41.688C2.016 40.512 1.56 39.096 1.512 37.44H8.064C8.16 38.376 8.484 39.096 9.036 39.6C9.588 40.08 10.308 40.32 11.196 40.32C12.108 40.32 12.828 40.116 13.356 39.708C13.884 39.276 14.148 38.688 14.148 37.944C14.148 37.32 13.932 36.804 13.5 36.396C13.092 35.988 12.576 35.652 11.952 35.388C11.352 35.124 10.488 34.824 9.36 34.488C7.728 33.984 6.396 33.48 5.364 32.976C4.332 32.472 3.444 31.728 2.7 30.744C1.956 29.76 1.584 28.476 1.584 26.892C1.584 24.54 2.436 22.704 4.14 21.384C5.844 20.04 8.064 19.368 10.8 19.368C13.584 19.368 15.828 20.04 17.532 21.384C19.236 22.704 20.148 24.552 20.268 26.928H13.608C13.56 26.112 13.26 25.476 12.708 25.02C12.156 24.54 11.448 24.3 10.584 24.3C9.84 24.3 9.24 24.504 8.784 24.912C8.328 25.296 8.1 25.86 8.1 26.604C8.1 27.42 8.484 28.056 9.252 28.512C10.02 28.968 11.22 29.46 12.852 29.988C14.484 30.54 15.804 31.068 16.812 31.572C17.844 32.076 18.732 32.808 19.476 33.768C20.22 34.728 20.592 35.964 20.592 37.476C20.592 38.916 20.22 40.224 19.476 41.4C18.756 42.576 17.7 43.512 16.308 44.208C14.916 44.904 13.272 45.252 11.376 45.252ZM23.1564 34.956C23.1564 32.868 23.5764 31.044 24.4164 29.484C25.2804 27.924 26.4684 26.724 27.9804 25.884C29.5164 25.044 31.2684 24.624 33.2364 24.624C35.7564 24.624 37.8564 25.284 39.5364 26.604C41.2404 27.924 42.3564 29.784 42.8844 32.184H36.3324C35.7804 30.648 34.7124 29.88 33.1284 29.88C32.0004 29.88 31.1004 30.324 30.4284 31.212C29.7564 32.076 29.4204 33.324 29.4204 34.956C29.4204 36.588 29.7564 37.848 30.4284 38.736C31.1004 39.6 32.0004 40.032 33.1284 40.032C34.7124 40.032 35.7804 39.264 36.3324 37.728H42.8844C42.3564 40.08 41.2404 41.928 39.5364 43.272C37.8324 44.616 35.7324 45.288 33.2364 45.288C31.2684 45.288 29.5164 44.868 27.9804 44.028C26.4684 43.188 25.2804 41.988 24.4164 40.428C23.5764 38.868 23.1564 37.044 23.1564 34.956ZM80.3711 34.632C80.3711 35.208 80.3351 35.808 80.2631 36.432H66.3311C66.4271 37.68 66.8231 38.64 67.5191 39.312C68.2391 39.96 69.1151 40.284 70.1471 40.284C71.6831 40.284 72.7511 39.636 73.3511 38.34H79.9031C79.5671 39.66 78.9551 40.848 78.0671 41.904C77.2031 42.96 76.1111 43.788 74.7911 44.388C73.4711 44.988 71.9951 45.288 70.3631 45.288C68.3951 45.288 66.6431 44.868 65.1071 44.028C63.5711 43.188 62.3711 41.988 61.5071 40.428C60.6431 38.868 60.2111 37.044 60.2111 34.956C60.2111 32.868 60.6311 31.044 61.4711 29.484C62.3351 27.924 63.5351 26.724 65.0711 25.884C66.6071 25.044 68.3711 24.624 70.3631 24.624C72.3071 24.624 74.0351 25.032 75.5471 25.848C77.0591 26.664 78.2351 27.828 79.0751 29.34C79.9391 30.852 80.3711 32.616 80.3711 34.632ZM74.0711 33.012C74.0711 31.956 73.7111 31.116 72.9911 30.492C72.2711 29.868 71.3711 29.556 70.2911 29.556C69.2591 29.556 68.3831 29.856 67.6631 30.456C66.9671 31.056 66.5351 31.908 66.3671 33.012H74.0711ZM95.8587 24.696C98.2107 24.696 100.083 25.464 101.475 27C102.891 28.512 103.599 30.6 103.599 33.264V45H97.4787V34.092C97.4787 32.748 97.1307 31.704 96.4347 30.96C95.7387 30.216 94.8027 29.844 93.6267 29.844C92.4507 29.844 91.5147 30.216 90.8187 30.96C90.1227 31.704 89.7747 32.748 89.7747 34.092V45H83.6187V24.912H89.7747V27.576C90.3987 26.688 91.2387 25.992 92.2947 25.488C93.3507 24.96 94.5387 24.696 95.8587 24.696ZM119.073 39.78V45H115.941C113.709 45 111.969 44.46 110.721 43.38C109.473 42.276 108.849 40.488 108.849 38.016V30.024H106.401V24.912H108.849V20.016H115.005V24.912H119.037V30.024H115.005V38.088C115.005 38.688 115.149 39.12 115.437 39.384C115.725 39.648 116.205 39.78 116.877 39.78H119.073ZM128.658 28.26C129.378 27.156 130.278 26.292 131.358 25.668C132.438 25.02 133.638 24.696 134.958 24.696V31.212H133.266C131.73 31.212 130.578 31.548 129.81 32.22C129.042 32.868 128.658 34.02 128.658 35.676V45H122.502V24.912H128.658V28.26ZM156.836 34.632C156.836 35.208 156.8 35.808 156.728 36.432H142.796C142.892 37.68 143.288 38.64 143.984 39.312C144.704 39.96 145.58 40.284 146.612 40.284C148.148 40.284 149.216 39.636 149.816 38.34H156.368C156.032 39.66 155.42 40.848 154.532 41.904C153.668 42.96 152.576 43.788 151.256 44.388C149.936 44.988 148.46 45.288 146.828 45.288C144.86 45.288 143.108 44.868 141.572 44.028C140.036 43.188 138.836 41.988 137.972 40.428C137.108 38.868 136.676 37.044 136.676 34.956C136.676 32.868 137.096 31.044 137.936 29.484C138.8 27.924 140 26.724 141.536 25.884C143.072 25.044 144.836 24.624 146.828 24.624C148.772 24.624 150.5 25.032 152.012 25.848C153.524 26.664 154.7 27.828 155.54 29.34C156.404 30.852 156.836 32.616 156.836 34.632ZM150.536 33.012C150.536 31.956 150.176 31.116 149.456 30.492C148.736 29.868 147.836 29.556 146.756 29.556C145.724 29.556 144.848 29.856 144.128 30.456C143.432 31.056 143 31.908 142.832 33.012H150.536ZM179.02 34.632C179.02 35.208 178.984 35.808 178.912 36.432H164.98C165.076 37.68 165.472 38.64 166.168 39.312C166.888 39.96 167.764 40.284 168.796 40.284C170.332 40.284 171.4 39.636 172 38.34H178.552C178.216 39.66 177.604 40.848 176.716 41.904C175.852 42.96 174.76 43.788 173.44 44.388C172.12 44.988 170.644 45.288 169.012 45.288C167.044 45.288 165.292 44.868 163.756 44.028C162.22 43.188 161.02 41.988 160.156 40.428C159.292 38.868 158.86 37.044 158.86 34.956C158.86 32.868 159.28 31.044 160.12 29.484C160.984 27.924 162.184 26.724 163.72 25.884C165.256 25.044 167.02 24.624 169.012 24.624C170.956 24.624 172.684 25.032 174.196 25.848C175.708 26.664 176.884 27.828 177.724 29.34C178.588 30.852 179.02 32.616 179.02 34.632ZM172.72 33.012C172.72 31.956 172.36 31.116 171.64 30.492C170.92 29.868 170.02 29.556 168.94 29.556C167.908 29.556 167.032 29.856 166.312 30.456C165.616 31.056 165.184 31.908 165.016 33.012H172.72Z" fill="white"/>
</svg>
